<svg width="137" height="137" viewBox="0 0 137 137" fill="none" xmlns="http://www.w3.org/2000/svg">
<rect width="137" height="137" rx="30" fill="#009933"/>
<path d="M31.02 77V55.112H24.18V52.52H40.74V55.112H33.9V77H31.02ZM47.969 77.504C45.785 77.504 44.057 76.688 42.785 75.056C41.537 73.4 40.913 71.156 40.913 68.324C40.913 66.404 41.285 64.712 42.029 63.248C42.797 61.76 43.853 60.596 45.197 59.756C46.541 58.916 48.065 58.496 49.769 58.496C50.873 58.496 52.013 58.688 53.189 59.072C54.389 59.456 55.445 59.96 56.357 60.584V73.4L56.717 77L54.341 77.18L53.693 73.94C53.069 75.068 52.265 75.944 51.281 76.568C50.297 77.192 49.193 77.504 47.969 77.504ZM48.509 75.056C50.045 75.056 51.281 74.312 52.217 72.824C53.153 71.312 53.621 69.32 53.621 66.848V61.844C52.421 61.244 51.137 60.944 49.769 60.944C48.593 60.944 47.537 61.256 46.601 61.88C45.689 62.504 44.969 63.38 44.441 64.508C43.913 65.612 43.649 66.884 43.649 68.324C43.649 70.388 44.081 72.032 44.945 73.256C45.833 74.456 47.021 75.056 48.509 75.056ZM62.6733 77V62.6L62.3133 59L64.6893 58.82L65.4093 62.564C66.1053 61.316 66.9813 60.332 68.0373 59.612C69.0933 58.868 70.2453 58.496 71.4933 58.496C75.4293 58.496 77.3973 61.016 77.3973 66.056V77H74.6613V66.056C74.6613 62.648 73.4493 60.944 71.0253 60.944C69.9933 60.944 69.0453 61.304 68.1813 62.024C67.3413 62.744 66.6693 63.716 66.1653 64.94C65.6613 66.164 65.4093 67.544 65.4093 69.08V77H62.6733ZM88.3174 85.604C87.2134 85.604 86.0614 85.412 84.8614 85.028C83.6854 84.644 82.6414 84.14 81.7294 83.516L83.0974 81.392C83.7214 81.872 84.5134 82.268 85.4734 82.58C86.4334 82.892 87.3814 83.048 88.3174 83.048C89.5174 83.048 90.5734 82.736 91.4854 82.112C92.3974 81.488 93.1174 80.624 93.6454 79.52C94.1734 78.416 94.4374 77.156 94.4374 75.74V74.012C93.7894 75.116 92.9854 75.98 92.0254 76.604C91.0654 77.204 89.9854 77.504 88.7854 77.504C86.6014 77.504 84.8734 76.688 83.6014 75.056C82.3534 73.4 81.7294 71.156 81.7294 68.324C81.7294 66.404 82.1014 64.712 82.8454 63.248C83.6134 61.76 84.6694 60.596 86.0134 59.756C87.3574 58.916 88.8814 58.496 90.5854 58.496C91.6894 58.496 92.8294 58.688 94.0054 59.072C95.2054 59.456 96.2614 59.96 97.1734 60.584V75.776C97.1734 77.672 96.7894 79.364 96.0214 80.852C95.2774 82.34 94.2334 83.504 92.8894 84.344C91.5694 85.184 90.0454 85.604 88.3174 85.604ZM89.3254 75.056C90.8134 75.056 92.0374 74.336 92.9974 72.896C93.9574 71.456 94.4374 69.536 94.4374 67.136V61.844C93.2374 61.244 91.9534 60.944 90.5854 60.944C89.4094 60.944 88.3534 61.256 87.4174 61.88C86.5054 62.504 85.7854 63.38 85.2574 64.508C84.7294 65.612 84.4654 66.884 84.4654 68.324C84.4654 70.388 84.8974 72.032 85.7614 73.256C86.6494 74.456 87.8374 75.056 89.3254 75.056ZM103.459 77V59H106.195V77H103.459ZM104.827 55.904C104.179 55.904 103.663 55.724 103.279 55.364C102.919 54.98 102.739 54.464 102.739 53.816C102.739 53.192 102.919 52.688 103.279 52.304C103.663 51.92 104.179 51.728 104.827 51.728C105.451 51.728 105.955 51.92 106.339 52.304C106.723 52.688 106.915 53.192 106.915 53.816C106.915 54.416 106.723 54.92 106.339 55.328C105.955 55.712 105.451 55.904 104.827 55.904Z" fill="#F5F5F5"/>
</svg>
